<svg width="18" height="18" viewBox="0 0 18 18" fill="none" xmlns="http://www.w3.org/2000/svg">
<path fill-rule="evenodd" clip-rule="evenodd" d="M14.0001 8.01663C13.5398 8.01663 13.1667 8.38972 13.1667 8.84996V14.8333C13.1667 15.2935 12.7936 15.6666 12.3334 15.6666H3.16675C2.70651 15.6666 2.33341 15.2935 2.33341 14.8333V5.66663C2.33341 5.20639 2.70651 4.83329 3.16675 4.83329H9.15008C9.61032 4.83329 9.98341 4.4602 9.98341 3.99996C9.98341 3.53972 9.61032 3.16663 9.15008 3.16663H3.16675C1.78604 3.16663 0.666748 4.28591 0.666748 5.66663V14.8333C0.666748 16.214 1.78604 17.3333 3.16675 17.3333H12.3334C13.7141 17.3333 14.8334 16.214 14.8334 14.8333V8.84996C14.8334 8.38972 14.4603 8.01663 14.0001 8.01663ZM17.2667 1.18329C17.1822 0.979668 17.0204 0.817855 16.8167 0.733293C16.7166 0.690592 16.609 0.667943 16.5001 0.666626H11.5001C11.0398 0.666626 10.6667 1.03972 10.6667 1.49996C10.6667 1.9602 11.0398 2.33329 11.5001 2.33329H14.4917L5.90841 10.9083C5.75065 11.0648 5.66191 11.2778 5.66191 11.5C5.66191 11.7222 5.75065 11.9352 5.90841 12.0916C6.06489 12.2494 6.27788 12.3381 6.50008 12.3381C6.72228 12.3381 6.93527 12.2494 7.09175 12.0916L15.6667 3.50829V6.49996C15.6667 6.9602 16.0398 7.3333 16.5001 7.3333C16.9603 7.3333 17.3334 6.9602 17.3334 6.49996V1.49996C17.3321 1.39106 17.3094 1.28348 17.2667 1.18329Z" fill="#0099EA"/>
</svg>
