<svg width="24" height="24" viewBox="0 0 24 24" fill="none" xmlns="http://www.w3.org/2000/svg">
<path d="M19.7816 8.5595L12.7757 5.10165C12.6402 5.03478 12.491 5 12.3399 5C12.1887 5 12.0396 5.03478 11.9041 5.10165L4.89814 8.5595C4.62956 8.6911 4.40312 8.89518 4.24441 9.14869C4.08571 9.4022 4.00105 9.69503 4 9.99412V17.3962C4 18.2819 4.72733 19 5.62467 19H19.0567C19.954 19 20.6814 18.2819 20.6814 17.3962V9.99412C20.6802 9.69486 20.5953 9.40191 20.4363 9.14838C20.2773 8.89486 20.0505 8.69087 19.7816 8.5595V8.5595Z" stroke="white" stroke-width="1.5" stroke-linecap="round" stroke-linejoin="round"/>
<path d="M18.0065 16.4341L12.8238 12.4029C12.6548 12.2715 12.447 12.2002 12.233 12.2002C12.019 12.2002 11.8111 12.2715 11.6421 12.4029L6.45898 16.4341" stroke="white" stroke-width="1.5" stroke-linecap="round" stroke-linejoin="round"/>
<path d="M14.4781 13.5068L19.9311 9.37695" stroke="white" stroke-width="1.5" stroke-linecap="round" stroke-linejoin="round"/>
<path d="M4.53439 9.37695L10.1077 13.587" stroke="white" stroke-width="1.5" stroke-linecap="round" stroke-linejoin="round"/>
</svg>
