<svg width="24" height="24" viewBox="0 0 24 24" fill="none" xmlns="http://www.w3.org/2000/svg">
<path d="M18.889 17.7526C19.3901 17.081 19.734 16.3054 19.8953 15.483C20.0565 14.6607 20.0311 13.8127 19.8208 13.0015C19.6105 12.1903 19.2208 11.4367 18.6803 10.7963C18.1399 10.1559 17.4625 9.645 16.6983 9.30134C16.5318 8.34356 16.1492 7.43632 15.5796 6.64856C15.0099 5.8608 14.2682 5.21324 13.4108 4.7551C12.5533 4.29695 11.6028 4.04027 10.6313 4.00456C9.65981 3.96885 8.69296 4.15504 7.80421 4.549C6.91547 4.94295 6.12821 5.5343 5.50226 6.27811C4.87631 7.02192 4.42814 7.89862 4.19179 8.84159C3.95545 9.78457 3.93715 10.769 4.13829 11.7201C4.33943 12.6712 4.75471 13.564 5.35259 14.3305L4.24121 15.4339C4.13026 15.5464 4.05511 15.6891 4.02523 15.8442C3.99534 15.9994 4.01207 16.1598 4.0733 16.3054C4.13329 16.4515 4.23515 16.5764 4.36605 16.6647C4.49695 16.7529 4.65104 16.8004 4.80889 16.8012H9.35836C9.81142 17.7563 10.5257 18.5636 11.4186 19.1296C12.3115 19.6956 13.3464 19.9972 14.4035 19.9994H19.2009C19.3587 19.9986 19.5128 19.9511 19.6437 19.8629C19.7746 19.7747 19.8765 19.6497 19.9365 19.5037C19.9977 19.358 20.0144 19.1976 19.9845 19.0425C19.9547 18.8874 19.8795 18.7446 19.7686 18.6321L18.889 17.7526ZM8.80667 14.4025C8.80776 14.6702 8.82915 14.9375 8.87063 15.2021H6.73582L7.01566 14.9302C7.0906 14.8559 7.15009 14.7674 7.19068 14.67C7.23127 14.5726 7.25217 14.4681 7.25217 14.3625C7.25217 14.257 7.23127 14.1525 7.19068 14.055C7.15009 13.9576 7.0906 13.8692 7.01566 13.7948C6.56756 13.3517 6.21231 12.8236 5.97069 12.2415C5.72907 11.6594 5.60592 11.035 5.60845 10.4047C5.60845 9.1324 6.11388 7.91218 7.01355 7.0125C7.91323 6.11283 9.13344 5.6074 10.4058 5.6074C11.3986 5.60143 12.3683 5.90674 13.1786 6.4804C13.9889 7.05407 14.599 7.86724 14.9233 8.80562C14.7474 8.80562 14.5794 8.80562 14.4035 8.80562C12.9192 8.80562 11.4956 9.39529 10.446 10.4449C9.39634 11.4945 8.80667 12.9181 8.80667 14.4025ZM17.234 18.4003L17.2739 18.4402H14.4035C13.4787 18.4386 12.5831 18.1164 11.8692 17.5284C11.1553 16.9405 10.6674 16.1233 10.4884 15.2159C10.3095 14.3086 10.4507 13.3673 10.888 12.5523C11.3252 11.7374 12.0315 11.0993 12.8864 10.7467C13.7414 10.3941 14.6922 10.3488 15.5768 10.6185C16.4614 10.8883 17.2251 11.4564 17.7378 12.2261C18.2505 12.9957 18.4806 13.9194 18.3887 14.8396C18.2968 15.7599 17.8887 16.6198 17.234 17.2729C17.0833 17.4205 16.9971 17.6217 16.9941 17.8326C16.9945 17.9384 17.016 18.043 17.0571 18.1405C17.0983 18.2379 17.1584 18.3262 17.234 18.4003Z" fill="white"/>
</svg>
