<svg width="24" height="24" viewBox="0 0 24 24" fill="none" xmlns="http://www.w3.org/2000/svg">
<path d="M18.0577 12.8255C17.8805 12.8255 17.6953 12.7691 17.5182 12.7289C17.1594 12.6498 16.8069 12.5448 16.4633 12.4148C16.0898 12.2789 15.6792 12.286 15.3105 12.4346C14.9419 12.5833 14.6412 12.863 14.4664 13.22L14.2892 13.5824C13.505 13.1461 12.7843 12.6042 12.1474 11.9719C11.5151 11.335 10.9732 10.6143 10.5369 9.83006L10.8751 9.60459C11.2321 9.42979 11.5119 9.12913 11.6605 8.76047C11.8092 8.39181 11.8162 7.9812 11.6803 7.60765C11.5525 7.26335 11.4476 6.91097 11.3663 6.55281C11.326 6.37566 11.2938 6.19046 11.2697 6.00526C11.1719 5.43807 10.8748 4.92444 10.4319 4.55686C9.98906 4.18927 9.42949 3.99189 8.85401 4.00026H6.43834C6.09132 3.997 5.74767 4.06855 5.43078 4.21004C5.11389 4.35153 4.83121 4.55964 4.60198 4.8202C4.37275 5.08076 4.20235 5.38765 4.10239 5.71998C4.00242 6.05231 3.97524 6.40228 4.02268 6.74606C4.45165 10.1194 5.99227 13.2538 8.40119 15.6539C10.8101 18.0541 13.95 19.5833 17.3249 20H17.6309C18.2247 20.0009 18.798 19.783 19.2414 19.388C19.4961 19.1602 19.6996 18.8809 19.8384 18.5686C19.9772 18.2563 20.0482 17.918 20.0466 17.5763V15.1606C20.0367 14.6013 19.833 14.0627 19.4703 13.6369C19.1076 13.211 18.6083 12.9242 18.0577 12.8255ZM18.4603 17.6568C18.4601 17.7711 18.4357 17.8841 18.3885 17.9882C18.3412 18.0924 18.2724 18.1853 18.1865 18.2607C18.0965 18.3384 17.9913 18.3964 17.8776 18.4311C17.7639 18.4658 17.6442 18.4763 17.5262 18.462C14.5106 18.0754 11.7095 16.6958 9.56479 14.5408C7.42007 12.3859 6.05378 9.57829 5.68144 6.56086C5.66862 6.44291 5.67985 6.32358 5.71445 6.2101C5.74905 6.09661 5.8063 5.99132 5.88274 5.90058C5.9582 5.81469 6.05108 5.74585 6.15521 5.69864C6.25934 5.65144 6.37233 5.62695 6.48666 5.6268H8.90232C9.08957 5.62264 9.27242 5.68388 9.41939 5.79998C9.56636 5.91609 9.66825 6.0798 9.70754 6.26293C9.73975 6.48302 9.78001 6.70043 9.82832 6.91516C9.92134 7.33962 10.0451 7.75676 10.1987 8.16325L9.07142 8.68664C8.97503 8.73087 8.88833 8.79369 8.81629 8.87152C8.74425 8.94934 8.68829 9.04063 8.65163 9.14014C8.61497 9.23965 8.59833 9.34542 8.60265 9.45138C8.60698 9.55734 8.6322 9.6614 8.67686 9.75759C9.83573 12.2399 11.8311 14.2353 14.3134 15.3941C14.5094 15.4747 14.7293 15.4747 14.9254 15.3941C15.0258 15.3582 15.1181 15.3027 15.1969 15.2308C15.2757 15.1589 15.3394 15.0721 15.3843 14.9754L15.8836 13.8481C16.2999 13.997 16.7247 14.1207 17.1558 14.2185C17.3706 14.2668 17.588 14.3071 17.8081 14.3393C17.9912 14.3786 18.1549 14.4805 18.271 14.6274C18.3871 14.7744 18.4484 14.9573 18.4442 15.1445L18.4603 17.6568Z" fill="white"/>
</svg>
